<?xml version="1.0" encoding="utf-8"?>
<!-- Generator: Adobe Illustrator 19.2.0, SVG Export Plug-In . SVG Version: 6.00 Build 0)  -->
<svg version="1.1" id="Capa_1" xmlns="http://www.w3.org/2000/svg" xmlns:xlink="http://www.w3.org/1999/xlink" x="0px" y="0px"
	 viewBox="0 0 305 226.9" style="enable-background:new 0 0 305 226.9;" xml:space="preserve">
<style type="text/css">
	.st0{fill:#BF3066;}
	.st1{fill:#E9CC13;}
	.st2{fill:#043A63;}
</style>
<g>
	<path class="st0" d="M147.8,117.8l-16.6-16.6c-2.5-2.5-2.5-6.6,0-9l50.4-50.5c2.5-2.5,6.6-2.5,9,0l16.6,16.7c2.5,2.5,2.5,6.6,0,9
		l-50.4,50.5C154.4,120.3,150.3,120.3,147.8,117.8"/>
	<path class="st1" d="M114.1,84L97.5,67.4c-2.5-2.5-2.5-6.6,0-9l16.6-16.7c2.5-2.5,6.6-2.5,9,0l16.6,16.7c2.5,2.5,2.5,6.6,0,9
		L123.2,84C120.7,86.5,116.6,86.5,114.1,84"/>
	<path class="st2" d="M197.9,8.7l-6.8-6.8c-2.6-2.5-6.8-2.5-9.3,0l-24.8,24.5c-3.1,2.9-6.9,2.3-9.1,0.1L129.9,8.7h-0.1l-6.7-6.8
		c-2.5-2.5-6.6-2.5-9,0l-41,40.9l7.1,7.1c2.5,2.5,6.6,2.7,9.1,0.2l24.8-24.7c2.5-2.5,6.6-2.4,9,0l6.7,6.8h0.1L147.8,50
		c2.2,2.2,5.5,2.4,8,0.8c0.4-0.3,0.7-0.6,1.1-0.9l24.8-24.5c2.6-2.5,6.8-2.4,9.3,0L215.6,50c2.5,2.5,6.5,2.6,9,0.1l7.3-7.3
		L197.9,8.7z"/>
	<path class="st2" d="M49.2,142.2c8.9,0,14,4.7,14,15.1v28.2c0,1.8-1.4,3.2-3.2,3.2h-5.8c-1.8,0-3.2-1.4-3.2-3.2v-26
		c0-5.3-2.7-7.1-5.9-7.1c-2.8,0-5.7,1.7-7.2,4.5c-0.2,0.4-0.4,0.9-0.4,1.5v27.1c0,1.8-1.4,3.2-3.2,3.2h-5.8c-1.7,0-3.2-1.4-3.2-3.2
		v-25.1c0-5.3-2.3-8-6.4-8c-2.7,0-5.4,2-6.7,4.7c-0.2,0.4-0.3,0.9-0.3,1.3v27c0,1.8-1.4,3.2-3.2,3.2H3.2c-1.8,0-3.2-1.4-3.2-3.2v-39
		c0-1.8,1.4-3.2,3.2-3.2h4.8c1.2,0,2.3,0.7,2.9,1.8l1.1,2.4h0.3c2.8-3.6,7.5-5.3,12-5.3c6.9,0,9.7,2.9,11.3,6.1h0.3
		C38.2,145.2,42.8,142.2,49.2,142.2"/>
	<path class="st2" d="M106.6,157.5v18.2c0,2.6,1,3.7,3.1,3.7c0.7,0,1.3,0.6,1.3,1.3v6.3c0,0.5-0.3,0.9-0.7,1.1
		c-1.7,0.9-3.6,1.1-5.3,1.1c-4.3,0-6.8-2.1-8.2-4.9h-0.3c-1.7,2.2-5.1,5.1-11.6,5.1c-8.8,0-13.4-6-13.4-12.5
		c0-10.1,8.8-15,22.4-14.6c0.7,0,1.3-0.6,1.3-1.3v-2.2c0-5.1-2.8-6.6-6.5-6.6c-3.6,0-5.8,1.7-7.1,3.9c-0.4,0.7-1.3,0.8-1.9,0.4
		l-6.3-4.7c-0.6-0.4-0.7-1.2-0.3-1.8c2.2-2.8,6.7-7.5,15.5-7.5C100.1,142.5,106.6,146.5,106.6,157.5 M95.2,171.7
		c0-0.7-0.5-1.3-1.2-1.3c-7.1-0.3-10.7,1.6-10.7,5.3c0,2.6,1.8,4.4,4.9,4.4c2.8,0,5.2-1.2,6.7-2.8c0.2-0.2,0.3-0.5,0.3-0.9V171.7z"
		/>
	<path class="st2" d="M152.3,182.2c0.8,1.4,0.4,3.2-0.9,4c-3.2,2-7.4,3.4-14.3,3.4c-14.3,0-21.6-8-21.6-23.7
		c0-14.7,8.2-23.5,21.3-23.5c11.6,0,18.2,7.3,18.2,18.4c0,1.7,0,3.3-0.3,5.5c-0.1,1.5-1.4,2.7-2.9,2.7h-23.1c-1.9,0-1,3.6-1,3.6
		c1.1,4.9,4.4,7.5,10.7,7.5c3.2,0,5.8-1,7.6-2.2c1.4-0.9,3.2-0.4,4.1,0.9L152.3,182.2z M127.6,160.9h16v-1.7c-0.2-5-2.4-7.6-7.2-7.6
		C131,151.6,127.7,155.6,127.6,160.9"/>
	<path class="st2" d="M162,156.5c0-7.4,6.3-14.1,16.9-14.1c6.7,0,11.3,1.9,14.5,4.5c1.1,0.9,1.2,2.6,0.2,3.6l-4.4,4.3
		c-0.9,0.9-2.2,0.9-3.2,0.2c-1.8-1.4-4.3-2.8-7.4-2.8c-2.7,0-4.5,1.4-4.5,3.5c0,6.8,21.4,4.4,21.4,19.6c0,6-4.7,14.1-17.9,14.1
		c-8,0-13.5-2.7-16.6-5.1c-1.1-0.8-1.3-2.4-0.4-3.5l4-4.7c0.9-1,2.4-1.1,3.4-0.3c2.3,2,6,4,10.2,4c3.8,0,5.2-1.8,5.2-3.9
		C183.3,169.5,162,171.6,162,156.5"/>
	<path class="st2" d="M230,184.6l-1.7-5c-0.4-1.2-1.7-1.8-2.8-1.3c-1.4,0.6-3,0.9-4.3,0.9c-3,0-4.8-1.6-4.8-4.7v-19.8v-0.4v-1.8h3.7
		h5.6c1.2,0,2-0.9,2-2.1v-5c0-1.2-0.8-2.1-2-2.1h-7.1c-0.1,0-0.1,0-0.2,0h-2v-1.7v-0.4V134c0-1.2-0.9-2-2-2h-4.1
		c-0.9,0-1.7,0.5-2,1.3l-3.3,8.4c-0.2,0.5-0.6,1-1.2,1.2l-3.8,1.5c-0.8,0.3-1.4,1.1-1.4,2v4c0,1.2,1.2,2.1,2.1,2.1h3.9v9.4v12.2
		c0,11,5.6,14.9,13.4,14.9c5.5,0,8.9-0.9,10.9-1.8C229.8,186.8,230.3,185.7,230,184.6"/>
	<path class="st2" d="M263.7,151.9c0,1.4-1.2,2.6-2.7,2.5c-0.9-0.1-1.8-0.1-2.6-0.1c-3.3,0-6.8,1.1-9.4,2.8
		c-0.7,0.5-1.2,1.3-1.2,2.1v27c0,1.4-1.1,2.5-2.5,2.5h-7c-1.4,0-2.5-1.1-2.5-2.5v-40.4c0-1.4,1.1-2.5,2.5-2.5h5.2c1,0,2,0.7,2.3,1.6
		l1.9,5h0.3c1.8-4.4,5.8-7.6,11.7-7.6c0.5,0,1,0,1.5,0.1c1.3,0.1,2.3,1.2,2.3,2.5V151.9z"/>
	<path class="st2" d="M300.6,157.5v18.2c0,2.6,1,3.7,3.1,3.7c0.7,0,1.3,0.6,1.3,1.3v6.3c0,0.5-0.3,0.9-0.7,1.1
		c-1.7,0.9-3.6,1.1-5.3,1.1c-4.3,0-6.8-2.1-8.2-4.9h-0.3c-1.7,2.2-5.1,5.1-11.6,5.1c-8.8,0-13.4-6-13.4-12.5
		c0-10.1,8.8-15,22.4-14.6c0.7,0,1.3-0.6,1.3-1.3v-2.2c0-5.1-2.8-6.6-6.5-6.6c-3.6,0-5.8,1.7-7.1,3.9c-0.4,0.7-1.3,0.8-1.9,0.4
		l-6.3-4.7c-0.6-0.4-0.7-1.2-0.3-1.8c2.2-2.8,6.7-7.5,15.5-7.5C294.2,142.5,300.6,146.5,300.6,157.5 M289.2,171.7
		c0-0.7-0.5-1.3-1.2-1.3c-7.1-0.3-10.7,1.6-10.7,5.3c0,2.6,1.8,4.4,4.9,4.4c2.8,0,5.2-1.2,6.7-2.8c0.2-0.2,0.3-0.5,0.3-0.9V171.7z"
		/>
	<path class="st2" d="M15.3,224.1l-3,1.8l-4.8-3.8c-4.7,0.1-7.4-2.6-7.4-8.9c0-6.4,3-9.1,7.2-9.1c4.3,0,7.1,2.5,7.1,9
		c0,4.6-1.5,7.3-3.6,8.1v0.1L15.3,224.1z M7.3,219.6c2.4,0,3.9-1.5,3.9-6.3c0-4.8-1.5-6.4-4-6.4c-2.3,0-3.8,1.5-3.8,6.3
		C3.3,217.9,4.9,219.6,7.3,219.6"/>
	<path class="st2" d="M17.4,208h3.1v9c0,1.8,0.8,2.7,2.4,2.7c1.8,0,2.7-1.2,2.8-2.3V208h3.1v14h-2.6l-0.5-1.4h-0.1
		c-0.7,0.8-1.8,1.6-3.8,1.6c-3,0-4.5-1.6-4.5-4.8V208z"/>
	<path class="st2" d="M42.9,220.8c-1,0.8-2.4,1.5-4.8,1.5c-4.3,0-6.5-2.3-6.5-7.3c0-4.7,2.6-7.2,6.3-7.2c3.5,0,5.4,2.2,5.4,5.6
		c0,0.7,0,1.5-0.1,2.5h-8.5c0.1,2.7,1.3,3.9,3.8,3.9c1.5,0,2.6-0.7,3.1-1.2L42.9,220.8z M34.6,213.7h5.7V213c0-1.8-0.8-2.8-2.6-2.8
		C36,210.2,34.7,211.4,34.6,213.7"/>
	<path class="st2" d="M54.1,211c-0.5-0.1-1.1-0.2-1.6-0.2c-1.2,0-2.6,0.5-3.3,1.4v9.8h-3.1v-14h2.4l0.7,1.9h0.1
		c0.6-1.2,1.8-2.1,3.6-2.1c0.5,0,0.9,0.1,1.3,0.1V211z"/>
	<path class="st2" d="M66.4,220.8c-1,0.8-2.4,1.5-4.8,1.5c-4.3,0-6.5-2.3-6.5-7.3c0-4.7,2.6-7.2,6.3-7.2c3.5,0,5.4,2.2,5.4,5.6
		c0,0.7,0,1.5-0.1,2.5h-8.5c0.1,2.7,1.3,3.9,3.8,3.9c1.5,0,2.6-0.7,3.1-1.2L66.4,220.8z M58.2,213.7h5.7V213c0-1.8-0.9-2.8-2.6-2.8
		C59.6,210.2,58.3,211.4,58.2,213.7"/>
	<path class="st2" d="M84.2,207.7c2.7,0,4.3,1.5,4.3,4.6v9.6h-3.1v-9.1c0-1.8-0.9-2.6-2.2-2.6c-1.2,0-2.3,0.8-2.6,1.9v9.8h-3.1v-8.8
		c0-1.8-0.8-2.8-2.3-2.8c-1.2,0-2.2,0.9-2.5,2v9.7h-3.1v-14h2.5l0.5,1.4h0.1c0.7-0.9,2-1.7,3.7-1.7c2.1,0,3.1,0.9,3.6,2h0.1
		C80.8,208.7,82.2,207.7,84.2,207.7"/>
	<path class="st2" d="M91.2,215.1c0-4.3,1.7-7.3,6.2-7.3c4.6,0,6.1,2.9,6.1,7.2c0,4.3-1.8,7.3-6.2,7.3
		C92.7,222.2,91.2,219.4,91.2,215.1 M97.4,219.8c2.2,0,2.9-1.5,2.9-4.7c0-3.2-0.9-4.8-3.1-4.8c-2.1,0-2.9,1.5-2.9,4.7
		C94.4,218.1,95.2,219.8,97.4,219.8"/>
	<path class="st2" d="M105.7,211.9c0-2.2,1.9-4.2,5-4.2c2.2,0,3.8,0.8,4.7,1.8l-2,2c-0.6-0.6-1.6-1.3-2.8-1.3
		c-1.3,0-1.9,0.6-1.9,1.5c0,2.5,6.8,1.6,6.8,6.2c0,1.9-1.5,4.2-5.3,4.2c-2.8,0-4.6-1.2-5.4-2l1.9-2.2c0.7,0.8,2.1,1.7,3.7,1.7
		c1.5,0,2.1-0.7,2.1-1.6C112.5,215.7,105.7,216.6,105.7,211.9"/>
	<path class="st2" d="M135.9,226.9h-3v-5.5h-0.1c-0.5,0.4-1.6,0.9-3.1,0.9c-2.9,0-5.3-1.8-5.3-6.8c0-4.3,2.2-7.5,6.9-7.5
		c2.1,0,3.7,0.3,4.7,0.8V226.9z M127.5,215.2c0,3.6,1.4,4.5,3.1,4.5c1,0,1.9-0.4,2.3-0.9v-8c-0.5-0.2-1.1-0.3-2-0.3
		C128.7,210.4,127.5,212.1,127.5,215.2"/>
	<path class="st2" d="M139.3,208h3.1v9c0,1.8,0.8,2.7,2.4,2.7c1.8,0,2.7-1.2,2.8-2.3V208h3.1v14h-2.6l-0.5-1.4h-0.1
		c-0.7,0.8-1.8,1.6-3.8,1.6c-3,0-4.5-1.6-4.5-4.8V208z"/>
	<path class="st2" d="M164.8,220.8c-1,0.8-2.4,1.5-4.8,1.5c-4.3,0-6.5-2.3-6.5-7.3c0-4.7,2.6-7.2,6.3-7.2c3.5,0,5.4,2.2,5.4,5.6
		c0,0.7,0,1.5-0.1,2.5h-8.5c0.1,2.7,1.3,3.9,3.8,3.9c1.5,0,2.6-0.7,3.1-1.2L164.8,220.8z M156.5,213.7h5.7V213
		c0-1.8-0.9-2.8-2.6-2.8C157.9,210.2,156.6,211.4,156.5,213.7"/>
	<path class="st2" d="M178.8,215.3c0.5,1.7,0.7,2.6,1,3.7h0.1c0.2-1.1,0.4-2.1,0.9-3.7l2.1-7.3h3.1l-4.5,14H178l-4.8-14h3.4
		L178.8,215.3z"/>
	<path class="st2" d="M189.6,202.3c1.1,0,1.9,0.8,1.9,2c0,1-0.8,1.8-1.9,1.8c-1,0-1.9-0.8-1.9-1.8
		C187.7,203.1,188.5,202.3,189.6,202.3 M188.1,208h3.1v14h-3.1V208z"/>
	<path class="st2" d="M198.8,215.3c0.5,1.7,0.7,2.6,1,3.7h0.1c0.2-1.1,0.5-2.1,0.9-3.7l2.1-7.3h3.1l-4.5,14H198l-4.8-14h3.4
		L198.8,215.3z"/>
	<path class="st2" d="M217.2,212.3v5.9c0,1,0.3,1.5,1.1,1.5h0.4v2.2c-0.5,0.3-0.9,0.4-1.4,0.4c-1.4,0-2.1-0.7-2.5-1.6h-0.1
		c-0.6,0.7-1.6,1.7-3.8,1.7c-2.7,0-4.1-1.9-4.1-3.8c0-3.2,3-4.7,7.6-4.5v-1.3c0-1.8-1-2.4-2.4-2.4c-1.5,0-2.3,0.9-2.7,1.6l-2.2-1.7
		c0.5-0.7,1.9-2.5,4.9-2.5C215.3,207.8,217.2,209.1,217.2,212.3 M214.3,216.1c-2.8-0.2-4.5,0.5-4.5,2.1c0,1,0.7,1.7,1.9,1.7
		c1.2,0,2.2-0.6,2.7-1.3V216.1z"/>
	<path class="st2" d="M220.5,211.9c0-2.2,1.9-4.2,5-4.2c2.2,0,3.8,0.8,4.7,1.8l-2,2c-0.6-0.6-1.6-1.3-2.8-1.3
		c-1.3,0-1.9,0.6-1.9,1.5c0,2.5,6.8,1.6,6.8,6.2c0,1.9-1.5,4.2-5.3,4.2c-2.8,0-4.6-1.2-5.4-2l1.9-2.2c0.7,0.8,2.1,1.7,3.7,1.7
		c1.5,0,2.1-0.7,2.1-1.6C227.2,215.7,220.5,216.6,220.5,211.9"/>
	<path class="st2" d="M254.5,207.7c2.7,0,4.3,1.5,4.3,4.6v9.6h-3.1v-9.1c0-1.8-0.9-2.6-2.2-2.6c-1.2,0-2.3,0.8-2.6,1.9v9.8h-3.1
		v-8.8c0-1.8-0.8-2.8-2.3-2.8c-1.2,0-2.2,0.9-2.5,2v9.7h-3.1v-14h2.5l0.5,1.4h0.1c0.7-0.9,2-1.7,3.7-1.7c2.1,0,3.1,0.9,3.6,2h0.1
		C251,208.7,252.4,207.7,254.5,207.7"/>
	<path class="st2" d="M272.8,220.8c-1,0.8-2.4,1.5-4.8,1.5c-4.3,0-6.5-2.3-6.5-7.3c0-4.7,2.6-7.2,6.3-7.2c3.5,0,5.4,2.2,5.4,5.6
		c0,0.7,0,1.5-0.1,2.5h-8.5c0.1,2.7,1.3,3.9,3.8,3.9c1.5,0,2.6-0.7,3.1-1.2L272.8,220.8z M264.5,213.7h5.7V213
		c0-1.8-0.9-2.8-2.6-2.8C265.9,210.2,264.6,211.4,264.5,213.7"/>
	<path class="st2" d="M273.4,225c1.8-0.7,2.7-1.6,2.7-4.7V208h3.1v12.4c0,3.1-1,5.9-4.7,7L273.4,225z M277.6,202.3
		c1.1,0,1.9,0.8,1.9,2c0,1-0.8,1.8-1.9,1.8c-1.1,0-1.9-0.8-1.9-1.8C275.7,203.1,276.5,202.3,277.6,202.3"/>
	<path class="st2" d="M282,215.1c0-4.3,1.7-7.3,6.2-7.3c4.6,0,6.1,2.9,6.1,7.2c0,4.3-1.8,7.3-6.2,7.3
		C283.5,222.2,282,219.4,282,215.1 M288.2,219.8c2.2,0,2.9-1.5,2.9-4.7c0-3.2-0.9-4.8-3.1-4.8c-2.1,0-2.9,1.5-2.9,4.7
		C285.1,218.1,286,219.8,288.2,219.8"/>
	<path class="st2" d="M305,211c-0.5-0.1-1.1-0.2-1.6-0.2c-1.3,0-2.6,0.5-3.3,1.4v9.8H297v-14h2.4l0.7,1.9h0.1
		c0.6-1.2,1.8-2.1,3.6-2.1c0.5,0,0.9,0.1,1.3,0.1V211z"/>
</g>
</svg>
