<svg id="Layer_1" data-name="Layer 1" xmlns="http://www.w3.org/2000/svg" viewBox="0 0 253.89 157.78"><defs><style>.cls-1{fill:#fff;}.cls-2{fill:#e9004c;}.cls-3{fill:#f4cd00;}</style></defs><title>maestra</title><path class="cls-1" d="M44.95,123.19c7.42,0,11.63,3.95,11.63,12.57v23.44a2.64,2.64,0,0,1-2.64,2.64H49.13a2.64,2.64,0,0,1-2.64-2.64V137.57c0-4.41-2.27-5.89-4.88-5.89a7,7,0,0,0-6,3.74,2.55,2.55,0,0,0-.29,1.21v22.57a2.64,2.64,0,0,1-2.64,2.64H27.88a2.64,2.64,0,0,1-2.64-2.64v-20.9c0-4.41-1.87-6.62-5.35-6.62a6.63,6.63,0,0,0-5.57,3.92,2.55,2.55,0,0,0-.24,1.11v22.49a2.64,2.64,0,0,1-2.64,2.64H6.62A2.64,2.64,0,0,1,4,159.21v-32.5a2.64,2.64,0,0,1,2.64-2.64h4A2.64,2.64,0,0,1,13,125.58l1,2h.27a12.53,12.53,0,0,1,10-4.41c5.75,0,8.09,2.41,9.42,5.08h.27a13.63,13.63,0,0,1,11.09-5.08" transform="translate(-3.98 -4.81)"/><path class="cls-1" d="M92.67,135.9V151c0,2.14.8,3.08,2.61,3.08a1.07,1.07,0,0,1,1.07,1.07v5.26a1.06,1.06,0,0,1-.57.94,9.56,9.56,0,0,1-4.45.95,7,7,0,0,1-6.82-4.08h-.27c-1.4,1.87-4.21,4.21-9.62,4.21-7.35,0-11.16-5-11.16-10.43,0-8.42,7.34-12.45,18.62-12.15a1.07,1.07,0,0,0,1.1-1.07V137c0-4.21-2.34-5.48-5.41-5.48a6.55,6.55,0,0,0-5.94,3.21,1.07,1.07,0,0,1-1.56.32L65,131.12a1.07,1.07,0,0,1-.21-1.51,15.46,15.46,0,0,1,12.92-6.21c9.62,0,15,3.34,15,12.51m-9.49,11.85a1.07,1.07,0,0,0-1-1.07c-5.93-.24-8.87,1.3-8.87,4.4,0,2.14,1.47,3.68,4.08,3.68a7.46,7.46,0,0,0,5.55-2.35,1.07,1.07,0,0,0,.26-.71Z" transform="translate(-3.98 -4.81)"/><path class="cls-1" d="M130.71,156.44a2.44,2.44,0,0,1-.76,3.34c-2.67,1.67-6.16,2.81-11.89,2.81-11.9,0-18-6.69-18-19.73,0-12.24,6.82-19.53,17.71-19.53,9.62,0,15.17,6.09,15.17,15.31a44.32,44.32,0,0,1-.21,4.54,2.45,2.45,0,0,1-2.43,2.21H111.14c-1.56,0-.83,3-.83,3,.9,4.06,3.64,6.26,8.89,6.26a11.64,11.64,0,0,0,6.36-1.83,2.43,2.43,0,0,1,3.38.79Zm-20.53-17.73h13.3v-1.4c-.13-4.15-2-6.35-5.95-6.35-4.54,0-7.22,3.34-7.35,7.76" transform="translate(-3.98 -4.81)"/><path class="cls-1" d="M138.78,135.1c0-6.15,5.28-11.7,14-11.7,5.54,0,9.44,1.59,12,3.73a2,2,0,0,1,.14,3l-3.64,3.57a2,2,0,0,1-2.65.13,9.69,9.69,0,0,0-6.15-2.31c-2.27,0-3.74,1.2-3.74,2.94,0,5.68,17.78,3.68,17.78,16.32,0,5-3.94,11.77-14.9,11.77-6.65,0-11.2-2.24-13.8-4.27a2,2,0,0,1-.29-2.89l3.35-3.87a2,2,0,0,1,2.79-.23,13.44,13.44,0,0,0,8.49,3.3c3.14,0,4.34-1.47,4.34-3.21,0-5.48-17.78-3.68-17.78-16.25" transform="translate(-3.98 -4.81)"/><path class="cls-1" d="M195.38,158.46l-1.44-4.17a1.77,1.77,0,0,0-2.34-1.07,9.52,9.52,0,0,1-3.54.73c-2.47,0-4-1.34-4-3.95v-18.3h7.73a1.64,1.64,0,0,0,1.65-1.74v-4.14a1.68,1.68,0,0,0-1.65-1.78h-7.73v-7.71a1.62,1.62,0,0,0-1.69-1.67H179a1.73,1.73,0,0,0-1.65,1.08l-2.76,7a1.75,1.75,0,0,1-1,1L170.43,125a1.83,1.83,0,0,0-1.16,1.64V130a2,2,0,0,0,1.73,1.77h3.21v18c0,9.16,4.68,12.44,11.16,12.44,4.6,0,7.41-.75,9.08-1.52a1.78,1.78,0,0,0,.93-2.19" transform="translate(-3.98 -4.81)"/><path class="cls-1" d="M223.46,131.21a2.08,2.08,0,0,1-2.21,2.08c-.74,0-1.48-.06-2.14-.06a15.15,15.15,0,0,0-7.86,2.31,2.1,2.1,0,0,0-1,1.76v22.47a2.08,2.08,0,0,1-2.08,2.08h-5.86a2.08,2.08,0,0,1-2.08-2.08V126.15a2.08,2.08,0,0,1,2.08-2.08h4.36a2.08,2.08,0,0,1,2,1.35l1.57,4.2h.27a10,10,0,0,1,9.76-6.35c.41,0,.85,0,1.28.06a2.09,2.09,0,0,1,1.93,2.08Z" transform="translate(-3.98 -4.81)"/><path class="cls-1" d="M254.2,135.9V151c0,2.14.8,3.08,2.61,3.08a1.07,1.07,0,0,1,1.07,1.07v5.26a1.06,1.06,0,0,1-.57.94,9.56,9.56,0,0,1-4.45.95,7,7,0,0,1-6.82-4.08h-.27c-1.4,1.87-4.21,4.21-9.62,4.21-7.35,0-11.16-5-11.16-10.43,0-8.42,7.34-12.45,18.62-12.15a1.07,1.07,0,0,0,1.1-1.07V137c0-4.21-2.34-5.48-5.41-5.48a6.55,6.55,0,0,0-5.94,3.21,1.07,1.07,0,0,1-1.56.32l-5.28-3.9a1.07,1.07,0,0,1-.21-1.51,15.46,15.46,0,0,1,12.92-6.21c9.62,0,15,3.34,15,12.51m-9.49,11.85a1.07,1.07,0,0,0-1-1.07c-5.93-.24-8.87,1.3-8.87,4.4,0,2.14,1.47,3.68,4.08,3.68a7.46,7.46,0,0,0,5.55-2.35,1.07,1.07,0,0,0,.26-.71Z" transform="translate(-3.98 -4.81)"/><path class="cls-2" d="M127,102.83,113.19,89a5.34,5.34,0,0,1,0-7.53l42-42a5.33,5.33,0,0,1,7.52,0l13.85,13.86a5.34,5.34,0,0,1,0,7.53l-42,42a5.33,5.33,0,0,1-7.52,0" transform="translate(-3.98 -4.81)"/><path class="cls-3" d="M99,74.75,85.12,60.89a5.34,5.34,0,0,1,0-7.53L99,39.5a5.33,5.33,0,0,1,7.52,0l13.85,13.86a5.34,5.34,0,0,1,0,7.53L106.5,74.75a5.33,5.33,0,0,1-7.52,0" transform="translate(-3.98 -4.81)"/><path class="cls-1" d="M168.66,12,163,6.38a5.63,5.63,0,0,0-7.76,0L134.57,26.75a5.3,5.3,0,0,1-7.57.12L112.14,12h-.06L106.5,6.38a5.33,5.33,0,0,0-7.52,0l-34.13,34,5.92,5.92a5.37,5.37,0,0,0,7.55.16L99,25.91a5.33,5.33,0,0,1,7.52,0l5.59,5.63h.06L127,46.44a5.29,5.29,0,0,0,6.67.64,5.21,5.21,0,0,0,.9-.76l20.67-20.41a5.63,5.63,0,0,1,7.76,0l20.46,20.44a5.28,5.28,0,0,0,7.48.08L197,40.39Z" transform="translate(-3.98 -4.81)"/></svg>