<?xml version="1.0" standalone="no"?>
<!DOCTYPE svg PUBLIC "-//W3C//DTD SVG 20010904//EN"
 "http://www.w3.org/TR/2001/REC-SVG-20010904/DTD/svg10.dtd">
<svg version="1.0" xmlns="http://www.w3.org/2000/svg"
 width="256.000000pt" height="256.000000pt" viewBox="0 0 256.000000 256.000000"
 preserveAspectRatio="xMidYMid meet">
<metadata>
Created by potrace 1.15, written by Peter Selinger 2001-2017
</metadata>
<g transform="translate(0.000000,256.000000) scale(0.100000,-0.100000)"
fill="#000000" stroke="none">
<path d="M315 2346 c-140 -44 -249 -150 -294 -284 -20 -60 -21 -80 -21 -782 0
-704 0 -722 21 -782 44 -131 147 -233 278 -278 61 -20 74 -20 799 -18 l738 3
75 37 c93 46 168 122 212 215 l32 68 3 313 c2 230 0 317 -9 328 -25 30 -62 16
-126 -48 l-62 -63 -3 -240 c-3 -211 -5 -244 -22 -275 -26 -49 -64 -88 -111
-113 -40 -22 -42 -22 -745 -22 -703 0 -705 0 -745 22 -47 25 -85 64 -111 113
-18 33 -19 71 -19 740 0 703 0 705 22 745 25 47 64 85 113 111 33 18 74 19
764 21 l729 2 48 47 c73 72 64 110 -33 139 -44 13 -154 15 -772 14 -553 0
-730 -3 -761 -13z"/>
<path d="M1693 1748 l-513 -513 -213 213 c-170 170 -221 215 -249 221 -63 15
-103 -8 -215 -122 -106 -109 -124 -142 -109 -204 10 -39 710 -739 749 -749 79
-19 55 -40 749 654 693 694 679 677 657 755 -6 22 -45 69 -122 145 l-114 112
-54 0 -54 0 -512 -512z"/>
</g>
</svg>
