<?xml version="1.0" standalone="no"?>
<!DOCTYPE svg PUBLIC "-//W3C//DTD SVG 20010904//EN"
 "http://www.w3.org/TR/2001/REC-SVG-20010904/DTD/svg10.dtd">
<svg version="1.0" xmlns="http://www.w3.org/2000/svg"
 width="256.000000pt" height="256.000000pt" viewBox="0 0 256.000000 256.000000"
 preserveAspectRatio="xMidYMid meet">
<metadata>
Created by potrace 1.15, written by Peter Selinger 2001-2017
</metadata>
<g transform="translate(0.000000,256.000000) scale(0.100000,-0.100000)"
fill="#000000" stroke="none">
<path d="M805 2069 c-64 -26 -124 -72 -205 -153 l-64 -66 -242 0 c-229 0 -243
-1 -268 -21 l-26 -20 0 -408 c0 -402 0 -408 21 -427 19 -17 41 -19 236 -22
l214 -3 182 -178 c189 -185 250 -232 352 -271 80 -30 190 -31 260 -2 28 11 73
23 102 26 61 6 124 35 173 80 19 18 57 41 83 50 27 10 73 41 105 70 35 33 76
59 106 69 60 21 108 56 147 111 l30 41 254 5 c231 5 255 7 274 24 21 19 21 25
21 411 0 367 -1 393 -18 408 -16 15 -47 17 -228 17 l-209 0 -96 103 c-70 74
-114 113 -160 137 l-64 35 -191 3 c-187 3 -193 3 -257 -23 l-66 -26 -43 23
c-39 21 -58 23 -208 25 -147 2 -170 1 -215 -18z m305 -130 c27 -6 50 -13 50
-16 0 -3 -47 -59 -105 -126 -58 -67 -113 -137 -122 -157 -9 -19 -19 -67 -21
-106 -5 -90 21 -156 85 -215 64 -58 121 -81 208 -82 120 -1 179 35 314 191 45
52 56 60 69 49 30 -24 262 -321 278 -355 42 -90 -30 -192 -138 -192 -45 0 -47
-1 -68 -46 -26 -54 -81 -93 -140 -101 -32 -5 -44 -12 -55 -34 -25 -47 -73 -74
-135 -75 -37 0 -66 -7 -85 -20 -19 -12 -52 -20 -97 -22 -62 -4 -76 -1 -136 29
-55 27 -101 67 -273 236 -216 212 -215 211 -291 205 -17 -2 -18 19 -18 298 l0
300 88 0 87 0 100 101 c55 55 114 108 130 116 27 15 106 28 192 32 18 0 55 -4
83 -10z m664 -20 c30 -14 76 -57 150 -140 l107 -119 49 0 50 0 0 -280 0 -280
-49 0 c-48 0 -50 1 -56 33 -4 17 -16 48 -26 68 -23 45 -193 263 -271 347 -43
46 -58 70 -58 92 0 19 -9 35 -26 49 -53 42 -76 27 -224 -142 -62 -70 -125
-134 -141 -142 -15 -8 -50 -15 -76 -15 -85 0 -143 55 -143 137 0 42 5 49 179
251 138 160 141 162 339 162 133 0 158 -3 196 -21z"/>
</g>
</svg>
