<?xml version="1.0" standalone="no"?>
<!DOCTYPE svg PUBLIC "-//W3C//DTD SVG 20010904//EN"
 "http://www.w3.org/TR/2001/REC-SVG-20010904/DTD/svg10.dtd">
<svg version="1.0" xmlns="http://www.w3.org/2000/svg"
 width="256.000000pt" height="256.000000pt" viewBox="0 0 256.000000 256.000000"
 preserveAspectRatio="xMidYMid meet">
<metadata>
Created by potrace 1.15, written by Peter Selinger 2001-2017
</metadata>
<g transform="translate(0.000000,256.000000) scale(0.100000,-0.100000)"
fill="#000000" stroke="none">
<path d="M25 2105 l-25 -24 0 -806 0 -806 25 -24 24 -25 1234 0 1234 0 21 23
22 23 0 810 0 811 -23 21 -23 22 -1233 0 -1232 0 -24 -25z m2027 -208 c9 -67
40 -126 95 -180 55 -55 107 -82 186 -98 l57 -12 0 -333 0 -333 -37 -6 c-163
-27 -281 -138 -301 -282 l-7 -48 -761 -3 -761 -2 -17 67 c-32 132 -127 227
-258 259 l-68 17 0 332 0 332 68 17 c131 32 226 127 258 259 l17 67 761 -2
761 -3 7 -48z"/>
<path d="M1168 1817 c-108 -41 -186 -114 -243 -227 -128 -254 -89 -575 92
-758 67 -68 123 -98 208 -112 209 -34 398 123 465 386 69 267 -41 577 -242
684 -56 30 -73 34 -153 37 -59 2 -103 -1 -127 -10z m192 -462 l0 -295 85 0 85
0 0 -60 0 -60 -250 0 -250 0 0 60 0 60 85 0 85 0 0 195 c0 107 -3 195 -6 195
-3 0 -21 -17 -40 -37 l-35 -37 -50 50 -50 49 93 87 93 87 78 1 77 0 0 -295z"/>
</g>
</svg>
